<svg width="100" height="100" viewBox="0 0 100 100" fill="none" xmlns="http://www.w3.org/2000/svg">
<path d="M49.9998 92.73C74.5721 92.73 94.4918 81.2291 94.4918 67.042C94.4918 52.8549 74.5721 41.354 49.9998 41.354C25.4276 41.354 5.50781 52.8549 5.50781 67.042C5.50781 81.2291 25.4276 92.73 49.9998 92.73Z" fill="#F5F5F5"/>
<path d="M57.9878 88.34L79.8158 75.74C80.2938 75.464 80.2938 75.016 79.8158 74.74L38.4898 50.878C38.2214 50.7419 37.9247 50.6709 37.6238 50.6709C37.3229 50.6709 37.0262 50.7419 36.7578 50.878L14.9298 63.478C14.4518 63.754 14.4518 64.202 14.9298 64.478L56.2558 88.34C56.5242 88.4762 56.8209 88.5471 57.1218 88.5471C57.4227 88.5471 57.7194 88.4762 57.9878 88.34Z" fill="#E0E0E0"/>
<path d="M19.1036 63.9559L20.8156 62.9679C20.8156 62.9679 21.2336 59.3039 20.9556 56.4659C20.5556 52.4799 17.9876 47.6819 14.9156 48.8079C11.8436 49.9339 16.3156 53.9959 17.3156 57.3779C18.3156 60.7599 19.1036 63.9559 19.1036 63.9559Z" fill="#02C39A"/>
<path opacity="0.15" d="M19.1036 63.9559L20.8156 62.9679C20.8156 62.9679 21.2336 59.3039 20.9556 56.4659C20.5556 52.4799 17.9876 47.6819 14.9156 48.8079C11.8436 49.9339 16.3156 53.9959 17.3156 57.3779C18.3156 60.7599 19.1036 63.9559 19.1036 63.9559Z" fill="black"/>
<path d="M19.9996 63.5399C19.9724 63.5389 19.9466 63.5272 19.9279 63.5074C19.9092 63.4875 19.8991 63.4612 19.8996 63.4339C20.1996 54.5739 15.7996 50.1159 15.7456 50.0719C15.7359 50.0624 15.7281 50.0511 15.7228 50.0385C15.7176 50.026 15.7148 50.0125 15.7148 49.9989C15.7148 49.9853 15.7176 49.9719 15.7228 49.9593C15.7281 49.9468 15.7359 49.9354 15.7456 49.9259C15.7651 49.9067 15.7913 49.896 15.8186 49.896C15.8459 49.896 15.8721 49.9067 15.8916 49.9259C15.9356 49.9719 20.4116 54.4919 20.1076 63.4419C20.1061 63.4692 20.0939 63.4947 20.0737 63.513C20.0535 63.5314 20.0269 63.541 19.9996 63.5399Z" fill="white"/>
<path d="M18.1998 64.664L19.3998 63.96C19.3998 63.96 19.5998 61.446 18.3758 58.392C17.3018 55.732 14.6398 53.526 13.2998 53.992C11.9598 54.458 11.9998 55.4 12.6538 56.4C13.3078 57.4 17.2798 59.77 18.1998 64.664Z" fill="#02C39A"/>
<path d="M18.8339 64.4C18.8063 64.4 18.7799 64.389 18.7604 64.3695C18.7409 64.35 18.7299 64.3236 18.7299 64.296C18.7539 58.696 13.4939 54.908 13.4399 54.87C13.4178 54.8539 13.4029 54.8298 13.3984 54.8029C13.3939 54.7759 13.4002 54.7483 13.4159 54.726C13.4237 54.7148 13.4336 54.7053 13.4451 54.698C13.4566 54.6908 13.4694 54.6859 13.4828 54.6836C13.4963 54.6814 13.51 54.6819 13.5232 54.685C13.5365 54.6882 13.5489 54.6939 13.5599 54.702C13.6139 54.74 18.9599 58.588 18.9379 64.302C18.9359 64.3283 18.9241 64.353 18.9049 64.3711C18.8857 64.3893 18.8603 64.3995 18.8339 64.4Z" fill="white"/>
<path d="M77.5459 10.942L79.2699 11.942C79.2598 11.8664 79.2544 11.7903 79.2539 11.714V11.2C79.2539 10.312 79.8779 9.95199 80.6539 10.4C80.9848 10.6039 81.2679 10.8768 81.4839 11.2C81.6099 10.084 82.4839 9.66799 83.5499 10.282C84.6999 10.946 85.6339 12.562 85.6339 13.882V14.628C85.6415 14.9265 85.5806 15.2227 85.4559 15.494L86.8879 16.32C87.1125 16.4664 87.2995 16.6636 87.4336 16.8957C87.5677 17.1278 87.6453 17.3883 87.6599 17.656C87.6599 18.15 87.3139 18.348 86.8879 18.102L77.5459 12.724C77.3213 12.5776 77.1344 12.3804 77.0003 12.1483C76.8661 11.9161 76.7886 11.6557 76.7739 11.388C76.7739 10.894 77.1199 10.694 77.5459 10.942Z" fill="#EBEBEB"/>
<path d="M70.4002 15.378L71.6622 16.106C71.6592 16.0507 71.6592 15.9953 71.6622 15.94V15.574C71.6622 14.922 72.1182 14.658 72.6822 14.974C72.9216 15.1244 73.1262 15.3242 73.2822 15.56C73.3742 14.74 74.0162 14.436 74.7962 14.886C75.2406 15.1757 75.6105 15.5661 75.876 16.0255C76.1415 16.4848 76.295 17.0002 76.3242 17.53V18.078C76.3291 18.2964 76.2846 18.5131 76.1942 18.712L77.2422 19.312C77.4073 19.4191 77.5448 19.5637 77.6435 19.7339C77.7422 19.9042 77.7993 20.0954 77.8102 20.292C77.8102 20.654 77.5562 20.8 77.2422 20.618L70.4002 16.686C70.2352 16.5783 70.098 16.4333 69.9997 16.2627C69.9013 16.0921 69.8446 15.9006 69.8342 15.704C69.8262 15.344 70.0782 15.2 70.4002 15.378Z" fill="#EBEBEB"/>
<path d="M78.492 71.454C78.804 71.694 78.77 72.036 78.394 72.254L57.8 84.148C57.5678 84.2654 57.3112 84.3266 57.051 84.3266C56.7908 84.3266 56.5342 84.2654 56.302 84.148L16.918 61.414C16.536 61.194 16.506 60.848 16.83 60.614C16.6362 60.7603 16.4767 60.9469 16.3623 61.1611C16.248 61.3752 16.1817 61.6117 16.168 61.854V62.844C16.1823 63.1043 16.2576 63.3577 16.3879 63.5835C16.5182 63.8093 16.6998 64.0013 16.918 64.144L56.288 86.87C56.5203 86.9884 56.7773 87.0501 57.038 87.0501C57.2987 87.0501 57.5557 86.9884 57.788 86.87L78.388 74.978C78.6063 74.8359 78.7879 74.6443 78.9183 74.4187C79.0486 74.1932 79.1239 73.9401 79.138 73.68V72.68C79.1238 72.4414 79.0589 72.2086 78.9474 71.9972C78.836 71.7858 78.6807 71.6006 78.492 71.454Z" fill="#455A64"/>
<path d="M78.3999 71.388L39.0179 48.654C38.7857 48.5366 38.5291 48.4755 38.2689 48.4755C38.0087 48.4755 37.7521 48.5366 37.5199 48.654L16.9199 60.55C16.5059 60.788 16.5059 61.176 16.9199 61.414L56.2919 84.148C56.5241 84.2655 56.7807 84.3266 57.0409 84.3266C57.3011 84.3266 57.5577 84.2655 57.7899 84.148L78.3899 72.252C78.7999 72.014 78.7999 71.626 78.3999 71.388ZM73.0579 69.55C73.4119 69.75 73.4119 70.086 73.0579 70.29L54.3259 81.108C54.1265 81.2086 53.9062 81.261 53.6829 81.261C53.4595 81.261 53.2393 81.2086 53.0399 81.108L22.3759 63.4C22.0219 63.2 22.0219 62.862 22.3759 62.658L41.1099 51.842C41.4639 51.642 41.8339 51.518 42.1879 51.722L73.0579 69.55Z" fill="#37474F"/>
<path d="M16.83 60.6001C16.6362 60.7463 16.4767 60.933 16.3623 61.1471C16.248 61.3613 16.1817 61.5977 16.168 61.8401V62.8301C16.1824 63.0904 16.2578 63.3437 16.3881 63.5695C16.5184 63.7953 16.6999 63.9873 16.918 64.1301L56.288 86.8701C56.5196 86.9923 56.7782 87.0542 57.04 87.0501V84.3261C56.779 84.331 56.5209 84.2698 56.29 84.1481L16.918 61.4141C16.536 61.2001 16.506 60.8481 16.83 60.6001Z" fill="#263238"/>
<path d="M29.2002 55.77C29.4782 55.61 29.4782 55.35 29.2002 55.19C29.0451 55.1118 28.8739 55.071 28.7002 55.071C28.5265 55.071 28.3553 55.1118 28.2002 55.19C27.9222 55.35 27.9222 55.61 28.2002 55.77C28.3553 55.8483 28.5265 55.889 28.7002 55.889C28.8739 55.889 29.0451 55.8483 29.2002 55.77Z" fill="black"/>
<path d="M67.3282 77.5241C67.9822 77.1481 67.9822 76.5361 67.3282 76.1601C66.9619 75.9729 66.5565 75.8754 66.1452 75.8754C65.7339 75.8754 65.3284 75.9729 64.9622 76.1601C64.3082 76.5361 64.3082 77.1481 64.9622 77.5241C65.3284 77.7112 65.7339 77.8088 66.1452 77.8088C66.5565 77.8088 66.9619 77.7112 67.3282 77.5241Z" stroke="#E6E6E6" stroke-miterlimit="10"/>
<path d="M28.6978 57.694L32.5778 55.456C32.8078 55.322 32.8198 55.112 32.6038 54.986C32.4778 54.926 32.3397 54.896 32.2002 54.8985C32.0607 54.9009 31.9236 54.9356 31.7998 55L27.9198 57.238C27.6898 57.372 27.6778 57.582 27.8938 57.708C28.0198 57.768 28.1579 57.798 28.2975 57.7956C28.437 57.7931 28.574 57.7584 28.6978 57.694Z" fill="black"/>
<path d="M42.1879 51.73C41.8339 51.53 41.4639 51.644 41.1099 51.85L22.3759 62.666C22.0219 62.866 22.0219 63.202 22.3759 63.408L53.0319 81.106C53.2313 81.2066 53.4515 81.259 53.6749 81.259C53.8982 81.259 54.1184 81.2066 54.3179 81.106L73.0499 70.288C73.4059 70.088 73.4059 69.752 73.0499 69.548L42.1879 51.73Z" fill="#02C39A"/>
<path opacity="0.85" d="M42.1879 51.73C41.8339 51.53 41.4639 51.644 41.1099 51.85L22.3759 62.666C22.0219 62.866 22.0219 63.202 22.3759 63.408L53.0319 81.106C53.2313 81.2066 53.4515 81.259 53.6749 81.259C53.8982 81.259 54.1184 81.2066 54.3179 81.106L73.0499 70.288C73.4059 70.088 73.4059 69.752 73.0499 69.548L42.1879 51.73Z" fill="white"/>
<path d="M24.534 63.6381L24.334 63.5221C24.3248 63.5187 24.3169 63.5126 24.3113 63.5045C24.3057 63.4965 24.3027 63.4869 24.3027 63.4771C24.3027 63.4673 24.3057 63.4577 24.3113 63.4497C24.3169 63.4417 24.3248 63.4355 24.334 63.4321L24.356 63.4201C24.38 63.4073 24.4068 63.4006 24.434 63.4006C24.4612 63.4006 24.488 63.4073 24.512 63.4201L24.712 63.5341C24.754 63.5601 24.754 63.6001 24.712 63.6241L24.69 63.6381C24.6657 63.6499 24.6391 63.6561 24.612 63.6561C24.585 63.6561 24.5583 63.6499 24.534 63.6381Z" fill="#455A64"/>
<path d="M24.8902 63.4321L24.5442 63.2321C24.5022 63.2081 24.5022 63.1681 24.5442 63.1421L24.5662 63.1301C24.5905 63.1182 24.6172 63.1121 24.6442 63.1121C24.6712 63.1121 24.6979 63.1182 24.7222 63.1301L25.0682 63.3301C25.1102 63.3541 25.1102 63.3941 25.0682 63.4201L25.0462 63.4321C25.0219 63.4439 24.9952 63.4501 24.9682 63.4501C24.9412 63.4501 24.9145 63.4439 24.8902 63.4321Z" fill="#455A64"/>
<path d="M25.2461 63.226L24.7561 62.944C24.7121 62.918 24.7121 62.878 24.7561 62.854L24.7781 62.84C24.8024 62.8282 24.8291 62.822 24.8561 62.822C24.8832 62.822 24.9098 62.8282 24.9341 62.84L25.4241 63.124C25.4333 63.1274 25.4413 63.1336 25.4468 63.1416C25.4524 63.1497 25.4554 63.1592 25.4554 63.169C25.4554 63.1788 25.4524 63.1884 25.4468 63.1964C25.4413 63.2045 25.4333 63.2106 25.4241 63.214L25.4021 63.226C25.3781 63.2388 25.3513 63.2455 25.3241 63.2455C25.2969 63.2455 25.2702 63.2388 25.2461 63.226Z" fill="#455A64"/>
<path d="M25.6002 63.0221L24.7542 62.5321C24.7102 62.5081 24.7102 62.4681 24.7542 62.4421L24.7762 62.4301C24.8004 62.4178 24.8271 62.4114 24.8542 62.4114C24.8813 62.4114 24.908 62.4178 24.9322 62.4301L25.7762 62.9181C25.8202 62.9441 25.8202 62.9841 25.7762 63.0081L25.7562 63.0221C25.7319 63.0339 25.7052 63.0401 25.6782 63.0401C25.6512 63.0401 25.6245 63.0339 25.6002 63.0221Z" fill="#455A64"/>
<path d="M26.622 62.4981C26.6085 62.4996 26.595 62.4961 26.584 62.4881L26.46 62.4161L26.06 62.6461C26.0514 62.6519 26.0414 62.6549 26.031 62.6549C26.0207 62.6549 26.0106 62.6519 26.002 62.6461L25.956 62.6201L25.936 62.6061V62.5861L25.916 62.0841C25.9147 62.0768 25.9147 62.0694 25.916 62.0621C25.9226 62.0544 25.9308 62.0483 25.94 62.0441L25.994 62.0121C26.0082 62.0038 26.0238 61.9984 26.04 61.9961C26.0548 61.9963 26.0693 62.0005 26.082 62.0081L26.516 62.2581L26.604 62.2081C26.6172 62.1993 26.6323 62.1938 26.648 62.1921C26.6622 62.1921 26.6762 62.1962 26.688 62.2041L26.718 62.2221C26.732 62.2221 26.738 62.2361 26.736 62.2441C26.734 62.2521 26.736 62.2581 26.71 62.2681L26.622 62.3201L26.746 62.3921C26.76 62.3921 26.766 62.4061 26.764 62.4141C26.762 62.4221 26.754 62.4301 26.736 62.4401L26.668 62.4781C26.6551 62.4893 26.639 62.4963 26.622 62.4981ZM26.38 62.3401L26.07 62.1621L26.09 62.5081L26.38 62.3401Z" fill="#455A64"/>
<path d="M27.0199 62.182C26.8799 62.1888 26.7409 62.1547 26.6199 62.084C26.4959 62.012 26.4399 61.934 26.4499 61.85C26.4599 61.766 26.5379 61.684 26.6799 61.602C26.7359 61.5688 26.7948 61.5407 26.8559 61.518C26.9095 61.4972 26.9651 61.4818 27.0219 61.472C27.0302 61.4688 27.0395 61.4688 27.0479 61.472C27.0487 61.4753 27.0487 61.4788 27.0479 61.482L27.0659 61.534C27.0678 61.5362 27.0689 61.5391 27.0689 61.542C27.0689 61.545 27.0678 61.5478 27.0659 61.55H27.0439C26.9577 61.5671 26.8752 61.5989 26.7999 61.644C26.7039 61.698 26.6519 61.756 26.6439 61.814C26.6359 61.872 26.6799 61.93 26.7759 61.984C26.8636 62.0377 26.965 62.0648 27.0679 62.062C27.1696 62.0583 27.2687 62.0287 27.3559 61.976C27.3871 61.9579 27.4171 61.9379 27.4459 61.916C27.4687 61.8998 27.4889 61.8803 27.5059 61.858L27.3059 61.742L27.1399 61.838C27.1257 61.8463 27.1101 61.8517 27.0939 61.854C27.0797 61.8536 27.0659 61.8494 27.0539 61.842L27.0259 61.826C27.0125 61.818 27.0065 61.81 27.0079 61.802C27.0079 61.802 27.0179 61.788 27.0339 61.778L27.2999 61.624C27.3156 61.6145 27.3335 61.609 27.3519 61.608C27.3682 61.6082 27.3842 61.6131 27.3979 61.622L27.6859 61.788C27.694 61.7913 27.7009 61.7968 27.7059 61.804C27.7059 61.804 27.7059 61.814 27.7059 61.822C27.643 61.9161 27.556 61.9914 27.4539 62.04C27.3231 62.1224 27.174 62.1712 27.0199 62.182Z" fill="#455A64"/>
<path d="M32.5558 58.296L33.0258 58.568C33.0457 58.5779 33.0676 58.583 33.0898 58.583C33.112 58.583 33.1339 58.5779 33.1538 58.568L33.6278 58.296C33.6618 58.274 33.6618 58.242 33.6278 58.222L33.1558 57.95C33.1362 57.9392 33.1142 57.9335 33.0918 57.9335C33.0694 57.9335 33.0474 57.9392 33.0278 57.95L32.5558 58.222C32.5198 58.242 32.5198 58.274 32.5558 58.296Z" fill="#455A64"/>
<path d="M32.8821 57.9261C32.8198 57.8958 32.7513 57.8808 32.6821 57.8821C32.6128 57.8803 32.5442 57.8954 32.4821 57.9261C32.3901 57.9801 32.3901 58.0621 32.4821 58.1141L32.6441 58.2081L32.7621 58.1841L32.6001 58.0921C32.5857 58.0866 32.5733 58.0769 32.5646 58.0642C32.5559 58.0515 32.5512 58.0365 32.5512 58.0211C32.5512 58.0057 32.5559 57.9907 32.5646 57.978C32.5733 57.9653 32.5857 57.9556 32.6001 57.9501C32.6259 57.9361 32.6547 57.9286 32.6841 57.9281C32.713 57.9273 32.7415 57.9349 32.7661 57.9501L32.9281 58.0441L33.0481 58.0201L32.8821 57.9261Z" fill="#455A64"/>
<path d="M41.464 52.964C41.3848 52.9613 41.3062 52.9792 41.236 53.016L40.036 53.706C39.932 53.764 39.932 53.858 40.036 53.918L40.472 54.168C40.5422 54.2048 40.6208 54.2227 40.7 54.22C40.7369 54.2197 40.7737 54.2164 40.81 54.21C40.851 54.2034 40.8903 54.1891 40.926 54.168L42.126 53.48C42.228 53.42 42.228 53.326 42.126 53.268L41.69 53.016C41.6205 52.9792 41.5426 52.9613 41.464 52.964ZM40.704 54.164C40.6697 54.1635 40.6361 54.1546 40.606 54.138L40.172 53.886C40.1553 53.88 40.1408 53.8691 40.1306 53.8546C40.1204 53.8401 40.1149 53.8228 40.1149 53.805C40.1149 53.7873 40.1204 53.77 40.1306 53.7555C40.1408 53.741 40.1553 53.73 40.172 53.724L41.372 53.036C41.391 53.0243 41.412 53.0161 41.434 53.012H41.47C41.5039 53.0131 41.5369 53.0227 41.566 53.04L42 53.29C42.0167 53.296 42.0312 53.307 42.0414 53.3215C42.0516 53.336 42.0571 53.3533 42.0571 53.371C42.0571 53.3888 42.0516 53.4061 42.0414 53.4206C42.0312 53.4351 42.0167 53.4461 42 53.452L40.8 54.142C40.7709 54.1593 40.7379 54.169 40.704 54.17V54.164Z" fill="#455A64"/>
<path d="M40.738 54.0861L40.722 54.0761L40.322 53.8501C40.3098 53.8456 40.2992 53.8374 40.2917 53.8266C40.2843 53.8159 40.2803 53.8032 40.2803 53.7901C40.2803 53.777 40.2843 53.7643 40.2917 53.7536C40.2992 53.7428 40.3098 53.7346 40.322 53.7301L41.398 53.1101C41.4047 53.1055 41.4121 53.1021 41.42 53.1001L41.436 53.1101L41.836 53.3361C41.8476 53.341 41.8575 53.3492 41.8645 53.3597C41.8715 53.3702 41.8752 53.3825 41.8752 53.3951C41.8752 53.4077 41.8715 53.42 41.8645 53.4305C41.8575 53.441 41.8476 53.4492 41.836 53.4541L40.76 54.0761L40.738 54.0861Z" fill="#455A64"/>
<path d="M41.7521 52.9841C41.7934 52.9743 41.8363 52.9733 41.878 52.9813C41.9197 52.9892 41.9593 53.0058 41.9941 53.0301L42.0741 53.0781C42.1641 53.1281 42.2021 53.1921 42.1601 53.2201L42.0821 53.2681L41.6821 53.0301L41.7521 52.9841Z" fill="#455A64"/>
<path d="M34.918 64.7361C35.212 64.7239 35.4993 64.6445 35.758 64.5041C36.246 64.2221 36.372 63.8381 35.598 63.3561C35.5719 63.5016 35.5125 63.6391 35.4244 63.7578C35.3362 63.8765 35.2218 63.9731 35.09 64.0401C34.426 64.4241 33.67 64.5221 33.06 64.1721C32.45 63.8221 32.66 63.3021 33.328 62.9181C33.7578 62.6729 34.2444 62.5448 34.7393 62.5465C35.2342 62.5483 35.7199 62.6799 36.148 62.9281C37.278 63.5801 37.024 64.2701 36.224 64.7281C35.8053 64.9626 35.339 65.0993 34.86 65.1281L34.918 64.7361ZM35.2 63.1481C34.614 62.8941 34.116 62.9301 33.738 63.1481C33.42 63.3301 33.356 63.5961 33.708 63.7981C33.8843 63.8935 34.0833 63.9388 34.2835 63.9293C34.4837 63.9198 34.6775 63.8557 34.844 63.7441C34.9562 63.6918 35.0501 63.6071 35.1136 63.5008C35.177 63.3946 35.2071 63.2717 35.2 63.1481Z" fill="#455A64"/>
<path d="M36.5998 61.89C36.7191 61.8177 36.8539 61.7748 36.993 61.7651C37.1322 61.7553 37.2717 61.779 37.3998 61.834C37.5998 61.954 37.5618 62.154 37.3058 62.3C37.1847 62.374 37.0475 62.418 36.9059 62.428C36.7643 62.4381 36.6223 62.4141 36.4918 62.358C36.2858 62.24 36.3378 62.038 36.5998 61.89ZM38.1618 62.792C38.2812 62.7198 38.4161 62.6772 38.5553 62.6678C38.6944 62.6585 38.8339 62.6825 38.9618 62.738C39.1618 62.856 39.1238 63.056 38.8678 63.204C38.7465 63.2776 38.6094 63.3212 38.4678 63.3313C38.3263 63.3414 38.1844 63.3176 38.0538 63.262C37.8498 63.144 37.8998 62.94 38.1558 62.8L38.1618 62.792Z" fill="#455A64"/>
<path d="M38.4259 61.702C37.4439 61.134 37.4439 60.544 38.2479 60.078C39.0519 59.612 40.0799 59.616 41.0599 60.182C42.0399 60.748 42.0599 61.356 41.2599 61.822C40.4599 62.288 39.4099 62.27 38.4259 61.702ZM40.3879 60.568C39.5659 60.094 39.0379 60.098 38.6599 60.316C38.2819 60.534 38.2739 60.84 39.0959 61.316C39.9179 61.792 40.4819 61.8 40.8539 61.586C41.2259 61.372 41.2119 61.044 40.3879 60.568Z" fill="#455A64"/>
<path d="M41.5542 59.8961C40.5702 59.3281 40.5702 58.7381 41.3742 58.2741C42.1782 57.8101 43.2082 57.8121 44.1862 58.3761C45.1642 58.9401 45.1982 59.5521 44.3862 60.0161C43.5742 60.4801 42.5362 60.4641 41.5542 59.8961ZM43.5162 58.7641C42.6922 58.2881 42.1642 58.2921 41.7862 58.5101C41.4082 58.7281 41.4002 59.0341 42.2242 59.5101C43.0482 59.9861 43.6102 59.9921 43.9802 59.7781C44.3502 59.5641 44.3382 59.2381 43.5162 58.7641Z" fill="#455A64"/>
<path d="M36.5122 69.1261L52.2482 60.0421C52.4342 59.948 52.6397 59.899 52.8482 59.899C53.0566 59.899 53.2622 59.948 53.4482 60.0421L57.4702 62.3641C57.8022 62.5641 57.8022 62.8661 57.4702 63.0581L41.7402 72.1421C41.5542 72.2361 41.3486 72.2851 41.1402 72.2851C40.9317 72.2851 40.7262 72.2361 40.5402 72.1421L36.5122 69.8201C36.1802 69.6281 36.1802 69.3181 36.5122 69.1261Z" fill="#02C39A"/>
<path d="M38.1999 69.4341L41.0159 71.0581C41.0959 71.0994 41.1847 71.121 41.2749 71.121C41.365 71.121 41.4538 71.0994 41.5339 71.0581L45.6839 68.6581C45.8279 68.5741 45.8279 68.4401 45.6839 68.3581L42.8679 66.732C42.7875 66.6916 42.6988 66.6705 42.6089 66.6705C42.5189 66.6705 42.4302 66.6916 42.3499 66.732L38.1999 69.132C38.1676 69.142 38.1393 69.162 38.1193 69.1892C38.0992 69.2164 38.0884 69.2493 38.0884 69.2831C38.0884 69.3168 38.0992 69.3497 38.1193 69.3769C38.1393 69.4041 38.1676 69.4241 38.1999 69.4341Z" fill="#FAFAFA"/>
<path d="M42.4478 68.652L45.7858 68.52L42.4598 68.47L42.5938 66.676L42.0478 68.89L38.0898 69.282L41.3218 69.13L41.2418 71.12L41.4898 69.122L42.4158 69.078L42.4478 68.652Z" fill="#02C39A"/>
<path d="M44.2 65.8841L48.266 63.5461C48.3673 63.4948 48.4794 63.468 48.593 63.468C48.7066 63.468 48.8186 63.4948 48.92 63.5461C49.098 63.6481 49.092 63.8161 48.906 63.9241L44.84 66.2621C44.7386 66.3134 44.6266 66.3401 44.513 66.3401C44.3994 66.3401 44.2873 66.3134 44.186 66.2621C44.01 66.1601 44.018 66.0001 44.2 65.8841Z" fill="#FAFAFA"/>
<path d="M45.4539 66.6001L53.6939 61.8381C53.7953 61.7867 53.9073 61.76 54.0209 61.76C54.1346 61.76 54.2466 61.7867 54.3479 61.8381C54.5259 61.9401 54.5199 62.1101 54.3339 62.2161L46.0939 66.9781C45.9922 67.0292 45.8798 67.0559 45.7659 67.0559C45.652 67.0559 45.5397 67.0292 45.4379 66.9781C45.2619 66.8821 45.2679 66.7141 45.4539 66.6001Z" fill="#FAFAFA"/>
<path d="M46.7039 67.3281L54.9459 62.5661C55.0473 62.5148 55.1593 62.488 55.2729 62.488C55.3865 62.488 55.4985 62.5148 55.5999 62.5661C55.7759 62.6681 55.7699 62.8381 55.5859 62.9441L47.3439 67.7061C47.2425 67.7574 47.1305 67.7841 47.0169 67.7841C46.9033 67.7841 46.7913 67.7574 46.6899 67.7061C46.5119 67.6001 46.5199 67.4361 46.7039 67.3281Z" fill="#FAFAFA"/>
<path d="M34.71 36.308L61.386 20.908L62.454 21.524C62.5995 21.6198 62.7206 21.7484 62.8075 21.8995C62.8943 22.0506 62.9445 22.2199 62.954 22.394V42.072C62.9446 42.246 62.8945 42.4154 62.8077 42.5666C62.7208 42.7177 62.5997 42.8463 62.454 42.942L36.78 57.762C36.6246 57.8393 36.4535 57.8795 36.28 57.8795C36.1064 57.8795 35.9353 57.8393 35.78 57.762L35.216 57.436C35.0702 57.3401 34.9489 57.2116 34.8618 57.0605C34.7746 56.9094 34.724 56.7401 34.714 56.566L34.71 36.308Z" fill="#02C39A"/>
<path opacity="0.05" d="M34.71 36.308L61.386 20.908L62.454 21.524C62.5995 21.6198 62.7206 21.7484 62.8075 21.8995C62.8943 22.0506 62.9445 22.2199 62.954 22.394V42.072C62.9446 42.246 62.8945 42.4154 62.8077 42.5666C62.7208 42.7177 62.5997 42.8463 62.454 42.942L36.78 57.762C36.6246 57.8393 36.4535 57.8795 36.28 57.8795C36.1064 57.8795 35.9353 57.8393 35.78 57.762L35.216 57.436C35.0702 57.3401 34.9489 57.2116 34.8618 57.0605C34.7746 56.9094 34.724 56.7401 34.714 56.566L34.71 36.308Z" fill="black"/>
<path d="M61.238 19.176L61.348 19.116L60.934 18.876C60.898 18.8558 60.8606 18.8385 60.822 18.824L49.082 14.474C48.921 14.42 48.7471 14.4187 48.5853 14.4701C48.4235 14.5215 48.2822 14.623 48.182 14.76L35.048 33.938C34.8441 34.2687 34.7277 34.6459 34.71 35.034V36.308L35.11 36.544L61.38 20.906V19.632C61.3762 19.4697 61.327 19.3118 61.238 19.176Z" fill="#02C39A"/>
<path opacity="0.1" d="M48.7241 14.854C48.6718 14.895 48.6259 14.9435 48.5881 14.998L35.4541 34.176C35.3462 34.3457 35.2639 34.5303 35.2101 34.724L34.8101 34.488C34.8397 34.3894 34.8751 34.2925 34.9161 34.198C34.9341 34.158 34.9521 34.12 34.9721 34.082V34.064C34.9929 34.0239 35.0162 33.9852 35.0421 33.948L48.1801 14.762C48.1998 14.7336 48.2219 14.7069 48.2461 14.682L48.3161 14.618L48.7241 14.854Z" fill="black"/>
<path opacity="0.35" d="M61.3422 19.116C61.3067 19.0944 61.2692 19.0763 61.2302 19.062L49.4882 14.71C49.3591 14.667 49.2212 14.6577 49.0876 14.6829C48.9539 14.7081 48.8288 14.767 48.7242 14.854L48.3242 14.618C48.4297 14.5318 48.555 14.4735 48.6889 14.4483C48.8227 14.4232 48.9607 14.432 49.0902 14.474L60.8302 18.824C60.8686 18.8383 60.9054 18.8564 60.9402 18.878L61.3422 19.116Z" fill="white"/>
<path d="M48.248 14.682C48.2694 14.6587 48.2929 14.6372 48.318 14.618C48.2924 14.6367 48.2689 14.6582 48.248 14.682Z" fill="#02C39A"/>
<path opacity="0.2" d="M48.1821 14.76C48.2013 14.7318 48.2235 14.7056 48.2481 14.682C48.2229 14.7051 48.2007 14.7313 48.1821 14.76Z" fill="black"/>
<path d="M48.5882 15L35.4562 34.18C35.2505 34.5093 35.1334 34.8861 35.1162 35.274V36.548L61.7922 21.148V19.868C61.7823 19.6955 61.7244 19.5293 61.6251 19.388C61.5258 19.2466 61.3891 19.1358 61.2302 19.068L49.4902 14.718C49.3293 14.6647 49.1556 14.6632 48.9938 14.7138C48.832 14.7644 48.6901 14.8645 48.5882 15Z" fill="#02C39A"/>
<path d="M38.02 55.082L37.164 54.588C37.0933 54.5341 37.0378 54.4629 37.0028 54.3813C36.9677 54.2996 36.9544 54.2103 36.964 54.122V27.45C36.9752 27.1792 37.058 26.9163 37.204 26.688L38.074 27.188C37.9268 27.4172 37.8439 27.6818 37.834 27.954V54.616C37.8233 54.703 37.8348 54.7914 37.8673 54.8728C37.8998 54.9542 37.9523 55.0262 38.02 55.082Z" fill="#E0E0E0"/>
<path d="M38.5538 26.68L59.9818 14.312C60.3818 14.076 60.7158 14.266 60.7158 14.736V41.4C60.7025 41.6551 60.629 41.9035 60.5015 42.1249C60.3739 42.3463 60.1959 42.5344 59.9818 42.674L38.5538 55.04C38.1538 55.274 37.8198 55.084 37.8198 54.614V27.954C37.8337 27.6989 37.9073 27.4507 38.0348 27.2294C38.1623 27.0081 38.3401 26.8199 38.5538 26.68Z" fill="#F0F0F0"/>
<path d="M59.632 13.758L60.472 14.246C60.3907 14.2157 60.303 14.2062 60.2171 14.2184C60.1311 14.2307 60.0496 14.2642 59.98 14.316L38.554 26.682C38.3484 26.8059 38.1778 26.98 38.058 27.188L37.188 26.688C37.3087 26.4804 37.4783 26.3053 37.682 26.178L59.11 13.8C59.1844 13.7452 59.2725 13.712 59.3645 13.7039C59.4566 13.6957 59.5491 13.7131 59.632 13.754V13.758Z" fill="#FAFAFA"/>
<path d="M40.226 28.076L58.044 17.788C58.284 17.65 58.478 17.748 58.478 18.008C58.4671 18.1533 58.4222 18.2941 58.3468 18.4188C58.2714 18.5436 58.1676 18.6488 58.044 18.726L40.226 29.014C39.986 29.152 39.792 29.054 39.792 28.796C39.8026 28.6503 39.8474 28.5091 39.9228 28.384C39.9982 28.2589 40.1021 28.1534 40.226 28.076Z" fill="#E0E0E0"/>
<path d="M40.226 29.946L58.044 19.658C58.284 19.52 58.478 19.618 58.478 19.878C58.4671 20.0233 58.4222 20.1641 58.3468 20.2888C58.2714 20.4136 58.1676 20.5188 58.044 20.596L40.226 30.884C39.986 31.022 39.792 30.924 39.792 30.666C39.8026 30.5203 39.8474 30.3791 39.9228 30.254C39.9982 30.1289 40.1021 30.0234 40.226 29.946Z" fill="#E0E0E0"/>
<path d="M40.226 31.816L58.044 21.528C58.284 21.39 58.478 21.488 58.478 21.746C58.4674 21.8917 58.4226 22.0329 58.3472 22.158C58.2718 22.2831 58.1679 22.3886 58.044 22.466L40.226 32.754C39.986 32.892 39.792 32.794 39.792 32.536C39.8026 32.3903 39.8474 32.2492 39.9228 32.1241C39.9982 31.9989 40.1021 31.8934 40.226 31.816Z" fill="#E0E0E0"/>
<path d="M40.226 33.686L58.044 23.4C58.284 23.262 58.478 23.36 58.478 23.618C58.4674 23.7637 58.4226 23.9048 58.3472 24.0299C58.2718 24.155 58.1679 24.2606 58.044 24.338L40.226 34.626C39.986 34.764 39.792 34.666 39.792 34.406C39.8026 34.2603 39.8474 34.1191 39.9228 33.994C39.9982 33.8689 40.1021 33.7634 40.226 33.686Z" fill="#E0E0E0"/>
<path d="M40.226 35.556L58.044 25.268C58.284 25.13 58.478 25.228 58.478 25.486C58.4674 25.6317 58.4226 25.7729 58.3472 25.898C58.2718 26.0231 58.1679 26.1286 58.044 26.206L40.226 36.494C39.986 36.632 39.792 36.534 39.792 36.274C39.8029 36.1287 39.8478 35.9879 39.9232 35.8632C39.9986 35.7384 40.1023 35.6332 40.226 35.556Z" fill="#E0E0E0"/>
<path d="M40.226 37.426L58.044 27.138C58.284 27 58.478 27.098 58.478 27.356C58.4674 27.5017 58.4226 27.6429 58.3472 27.768C58.2718 27.8931 58.1679 27.9986 58.044 28.076L40.226 38.364C39.986 38.502 39.792 38.404 39.792 38.144C39.8029 37.9987 39.8478 37.8579 39.9232 37.7332C39.9986 37.6084 40.1023 37.5032 40.226 37.426Z" fill="#E0E0E0"/>
<path d="M40.226 39.2959L58.044 28.9999C58.284 28.8619 58.478 28.9599 58.478 29.2179C58.4674 29.3636 58.4226 29.5048 58.3472 29.6299C58.2718 29.755 58.1679 29.8606 58.044 29.9379L40.226 40.2259C39.986 40.3639 39.792 40.2659 39.792 40.0059C39.8041 39.862 39.8496 39.7228 39.9249 39.5996C40.0003 39.4763 40.1034 39.3723 40.226 39.2959Z" fill="#E0E0E0"/>
<path d="M40.226 41.166L58.044 30.878C58.284 30.738 58.478 30.838 58.478 31.096C58.4674 31.2417 58.4226 31.3829 58.3472 31.508C58.2718 31.6331 58.1679 31.7386 58.044 31.816L40.226 42.104C39.986 42.242 39.792 42.144 39.792 41.884C39.8029 41.7387 39.8478 41.5979 39.9232 41.4732C39.9986 41.3484 40.1023 41.2432 40.226 41.166Z" fill="#E0E0E0"/>
<path d="M62.2778 42.332C62.2699 42.3462 62.2605 42.3596 62.2498 42.372L51.1338 37.442C50.7118 37.2553 50.2365 37.2273 49.7955 37.3633C49.3545 37.4993 48.9774 37.79 48.7338 38.182L36.8498 57.25L36.4098 57.504C36.3608 57.5382 36.304 57.5596 36.2447 57.5662C36.1853 57.5729 36.1252 57.5645 36.0698 57.542L48.2918 37.93C48.536 37.5386 48.9129 37.2483 49.3536 37.112C49.7943 36.9758 50.2694 37.0028 50.6918 37.188L62.2778 42.332Z" fill="#02C39A"/>
<path opacity="0.4" d="M47.6359 39.916L47.6639 39.892L36.8459 57.252L36.4059 57.506C36.3567 57.5397 36.2999 57.5608 36.2407 57.5675C36.1814 57.5741 36.1214 57.566 36.0659 57.544L47.1999 39.66L47.6359 39.916Z" fill="white"/>
<path opacity="0.4" d="M62.278 42.334C62.27 42.3483 62.2606 42.3617 62.25 42.374L51.132 37.442C50.71 37.2553 50.2347 37.2274 49.7936 37.3633C49.3526 37.4993 48.9756 37.7901 48.732 38.182L48.292 37.926C48.5371 37.5357 48.9144 37.2466 49.355 37.1115C49.7957 36.9763 50.2702 37.0042 50.692 37.19L62.278 42.334Z" fill="white"/>
<path d="M62.9459 22.266C62.9219 22.122 62.8459 22.082 62.7459 22.15C62.6965 22.1869 62.6533 22.2314 62.6179 22.282L62.5619 22.36L51.5999 37.632L49.9619 39.914C49.8565 40.0469 49.7168 40.1487 49.5579 40.2082C49.399 40.2678 49.2268 40.2829 49.0599 40.252L47.6459 39.916L36.8459 37.348C36.7734 37.3332 36.6985 37.3332 36.6259 37.348C36.5978 37.3537 36.5703 37.3624 36.5439 37.374L36.8419 37.202L47.2419 39.676L48.6599 40C48.8268 40.0313 48.9991 40.0164 49.1581 39.9568C49.3171 39.8973 49.4568 39.7953 49.5619 39.662L51.1999 37.382L62.2239 22.032C62.2576 21.9863 62.2997 21.9476 62.3479 21.918L61.3999 21.372L61.7999 21.142L62.4599 21.522C62.5865 21.6073 62.6947 21.7171 62.7781 21.8448C62.8616 21.9726 62.9187 22.1158 62.9459 22.266Z" fill="#02C39A"/>
<path opacity="0.4" d="M51.6 37.632L49.962 39.914C49.8565 40.047 49.7169 40.1487 49.5579 40.2083C49.399 40.2678 49.2269 40.283 49.06 40.252L47.646 39.916L47.674 39.892L47.742 39.784L48.668 40.004C48.8349 40.0354 49.0072 40.0205 49.1662 39.9609C49.3252 39.9013 49.4648 39.7994 49.57 39.666L51.192 37.41L51.6 37.632Z" fill="white"/>
<path opacity="0.1" d="M62.4521 21.522L61.7921 21.142L61.3921 21.372L62.3461 21.922C62.2979 21.9518 62.2558 21.9905 62.2221 22.036L51.2001 37.386L51.1841 37.408L51.5841 37.63L62.5601 22.36L62.6161 22.282C62.6514 22.2314 62.6946 22.1869 62.7441 22.15C62.8421 22.082 62.9181 22.122 62.9441 22.266C62.9161 22.1153 62.8581 21.9718 62.7736 21.844C62.6891 21.7162 62.5797 21.6067 62.4521 21.522Z" fill="black"/>
<path d="M37.062 37.668L34.71 36.308V56.566C34.72 56.7401 34.7706 56.9095 34.8578 57.0605C34.9449 57.2116 35.0662 57.3402 35.212 57.436L35.776 57.762C35.9313 57.8393 36.1024 57.8795 36.276 57.8795C36.4495 57.8795 36.6206 57.8393 36.776 57.762L37.058 57.598L37.062 37.668Z" fill="#02C39A"/>
<path opacity="0.15" d="M37.062 37.668L34.71 36.308V56.566C34.72 56.7401 34.7706 56.9095 34.8578 57.0605C34.9449 57.2116 35.0662 57.3402 35.212 57.436L35.776 57.762C35.9313 57.8393 36.1024 57.8795 36.276 57.8795C36.4495 57.8795 36.6206 57.8393 36.776 57.762L37.058 57.598L37.062 37.668Z" fill="black"/>
<path d="M62.5622 22.36V41.824C62.5569 42.0043 62.503 42.1798 62.4062 42.332C62.3327 42.4611 62.2325 42.5729 62.1122 42.66L62.0942 42.672L62.0602 42.694L36.3882 57.514C36.3574 57.533 36.3245 57.5484 36.2902 57.56C36.288 57.53 36.288 57.5 36.2902 57.47V37.8C36.2857 37.7295 36.2984 37.659 36.3273 37.5946C36.3561 37.5301 36.4001 37.4736 36.4556 37.4299C36.5111 37.3862 36.5763 37.3567 36.6458 37.3438C36.7152 37.3309 36.7867 37.3351 36.8542 37.356L47.6542 39.924L49.0682 40.26C49.235 40.2909 49.4072 40.2758 49.5661 40.2162C49.725 40.1567 49.8647 40.055 49.9702 39.922L51.6002 37.632L62.5622 22.36Z" fill="#455A64"/>
<path d="M62.9562 22.4V42.078C62.9499 42.2581 62.896 42.4334 62.8002 42.586C62.7256 42.7148 62.6256 42.8271 62.5062 42.916L62.4862 42.926C62.476 42.934 62.4653 42.9413 62.4542 42.948L36.7822 57.76C36.7331 57.7948 36.6761 57.8168 36.6163 57.8238C36.5565 57.8308 36.4959 57.8226 36.4402 57.8C36.3976 57.7751 36.3617 57.7403 36.3355 57.6985C36.3094 57.6567 36.2938 57.6091 36.2902 57.56C36.288 57.53 36.288 57.4999 36.2902 57.47V37.8C36.2857 37.7295 36.2984 37.659 36.3273 37.5945C36.3561 37.5301 36.4001 37.4736 36.4556 37.4299C36.5111 37.3862 36.5763 37.3567 36.6458 37.3438C36.7152 37.3309 36.7867 37.3351 36.8542 37.356L47.6542 39.924L49.0682 40.26C49.235 40.2909 49.4072 40.2758 49.5661 40.2162C49.725 40.1567 49.8647 40.0549 49.9702 39.922L51.6002 37.632L62.5702 22.36L62.6262 22.282C62.8002 22.024 62.9562 22.072 62.9562 22.4Z" fill="#02C39A"/>
<path d="M62.4541 42.94L62.4861 42.918L62.5061 42.908C62.6255 42.8191 62.7255 42.7068 62.8001 42.578C62.8934 42.428 62.9465 42.2564 62.9541 42.08L51.6001 37.632L59.2001 44.818L62.4541 42.94Z" fill="#02C39A"/>
<path opacity="0.2" d="M62.4541 42.94L62.4861 42.918L62.5061 42.908C62.6255 42.8191 62.7255 42.7068 62.8001 42.578C62.8934 42.428 62.9465 42.2564 62.9541 42.08L51.6001 37.632L59.2001 44.818L62.4541 42.94Z" fill="black"/>
<path d="M36.2801 57.472C36.2727 57.536 36.2835 57.6009 36.311 57.6592C36.3386 57.7175 36.3819 57.767 36.4361 57.802C36.4919 57.8246 36.5524 57.8328 36.6122 57.8258C36.672 57.8188 36.729 57.7968 36.7781 57.762L45.6161 52.66L47.6341 39.918L36.2801 57.144V57.472Z" fill="#02C39A"/>
<path opacity="0.15" d="M48.7261 38.18L36.4341 57.8C36.3799 57.765 36.3366 57.7155 36.3091 57.6572C36.2815 57.5989 36.2708 57.5341 36.2781 57.47V57.144L47.1241 39.8L47.2081 39.666L48.2861 37.938L48.7261 38.18Z" fill="black"/>
<path d="M62.7999 42.578C62.7254 42.7068 62.6253 42.8191 62.5059 42.908L62.4859 42.918L36.7819 57.76C36.7329 57.7949 36.6758 57.8168 36.6161 57.8238C36.5563 57.8308 36.4957 57.8226 36.4399 57.8L48.7319 38.174C48.9785 37.7803 49.3586 37.4886 49.8026 37.3523C50.2467 37.2161 50.725 37.2444 51.1499 37.432L62.7999 42.578Z" fill="#02C39A"/>
<path d="M62.8 42.58C62.7265 42.7091 62.6263 42.821 62.506 42.908L62.488 42.92L36.78 57.762C36.7306 57.7963 36.6735 57.8176 36.6138 57.8243C36.5541 57.8309 36.4937 57.8226 36.438 57.8L36.78 57.256L62.042 42.668L62.062 42.656C62.1684 42.5781 62.2587 42.4803 62.328 42.368L62.8 42.58Z" fill="#02C39A"/>
<path opacity="0.15" d="M34.8001 34.488L35.2001 34.724C35.1434 34.9014 35.1117 35.0859 35.1061 35.272V36.544L34.7061 36.308V35.034C34.7119 34.8486 34.7435 34.6648 34.8001 34.488Z" fill="black"/>
<path d="M37.2162 37.2841L36.8402 37.1941L36.5422 37.3661L36.1302 37.1281L35.1162 36.5441L35.5102 36.3101L37.2162 37.2841Z" fill="#02C39A"/>
<path opacity="0.1" d="M37.2158 37.284L35.5118 36.312L35.1118 36.546L36.1258 37.13L36.5378 37.368C36.5618 37.3561 36.5874 37.348 36.6138 37.344C36.6864 37.3292 36.7612 37.3292 36.8338 37.344L37.6638 37.544L47.1238 39.8L47.2078 39.666L37.2158 37.284Z" fill="black"/>
<path d="M67.7001 38.068L65.8021 36.968L65.7861 36.958C64.9581 36.49 63.8201 36.558 62.5621 37.288C60.0301 38.75 57.9761 42.306 57.9761 45.23C57.9761 46.69 58.4901 47.716 59.3161 48.196L61.0461 49.196L61.4461 48.518C61.9083 48.4156 62.3522 48.2429 62.7621 48.006C65.2941 46.544 67.3481 42.988 67.3481 40.064C67.3477 39.6689 67.2993 39.2754 67.2041 38.892L67.7001 38.068Z" fill="#F28F8F"/>
<path opacity="0.15" d="M58.1442 43.692C58.0323 44.1978 57.974 44.714 57.9702 45.232C57.9702 46.692 58.4842 47.718 59.3102 48.198L61.0402 49.198L61.4402 48.52C61.9025 48.4176 62.3463 48.2449 62.7562 48.008C63.2043 47.7458 63.6233 47.4367 64.0062 47.086L58.1442 43.692Z" fill="black"/>
<path d="M64.3624 38.33C61.8304 39.792 59.7764 43.348 59.7764 46.272C59.7764 49.196 61.8304 50.382 64.3624 48.92C66.8944 47.458 68.9484 43.902 68.9484 40.978C68.9484 38.054 66.8964 36.868 64.3624 38.33Z" fill="#FFA8A7"/>
<path d="M66.1744 42.3999V41.2759C66.1744 39.9939 65.3944 39.4039 64.4344 39.9599C63.4724 40.5159 62.6924 42.0039 62.6924 43.2859V44.2859C62.6713 44.9798 62.4693 45.6561 62.1064 46.2479C62.017 46.4048 61.9682 46.5814 61.9644 46.7619C61.9644 47.0839 62.1644 47.2339 62.4024 47.0939L66.4684 44.7459C66.6017 44.6501 66.7108 44.5244 66.7868 44.3789C66.8629 44.2334 66.9038 44.0721 66.9064 43.9079C66.9126 43.8452 66.9043 43.7819 66.8821 43.723C66.8599 43.664 66.8244 43.6109 66.7784 43.5679C66.4104 43.4119 66.1744 42.9999 66.1744 42.3999Z" fill="white"/>
<path d="M65.2681 45.7999C65.2681 46.4159 64.8941 47.1299 64.4341 47.3999C63.9741 47.6699 63.5981 47.3839 63.5981 46.7699L65.2681 45.7999Z" fill="white"/>
</svg>
