<svg width="94" height="79" viewBox="0 0 94 79" fill="none" xmlns="http://www.w3.org/2000/svg">
<g filter="url(#filter0_d_62_833)">
<circle cx="61.8" cy="21.7572" r="14.3" fill="url(#paint0_linear_62_833)" stroke="white"/>
<mask id="path-2-inside-1_62_833" fill="white">
<path fill-rule="evenodd" clip-rule="evenodd" d="M10 39.2C10 25.4797 21.1225 14.3572 34.8429 14.3572C44.4433 14.3572 52.7718 19.8029 56.9079 27.7738C59.3562 26.6267 62.089 25.9858 64.9714 25.9858C75.4806 25.9858 84 34.5052 84 45.0143C84 50.848 81.3749 56.0685 77.2415 59.559C74.7283 62.3142 71.1089 64.0429 67.0857 64.0429H64.9836C64.9795 64.0429 64.9755 64.0429 64.9714 64.0429C64.9674 64.0429 64.9633 64.0429 64.9592 64.0429H36.4286C36.2018 64.0429 35.9763 64.0374 35.7522 64.0266C35.4504 64.0374 35.1473 64.0429 34.8429 64.0429C21.1225 64.0429 10 52.9204 10 39.2Z"/>
</mask>
<path fill-rule="evenodd" clip-rule="evenodd" d="M10 39.2C10 25.4797 21.1225 14.3572 34.8429 14.3572C44.4433 14.3572 52.7718 19.8029 56.9079 27.7738C59.3562 26.6267 62.089 25.9858 64.9714 25.9858C75.4806 25.9858 84 34.5052 84 45.0143C84 50.848 81.3749 56.0685 77.2415 59.559C74.7283 62.3142 71.1089 64.0429 67.0857 64.0429H64.9836C64.9795 64.0429 64.9755 64.0429 64.9714 64.0429C64.9674 64.0429 64.9633 64.0429 64.9592 64.0429H36.4286C36.2018 64.0429 35.9763 64.0374 35.7522 64.0266C35.4504 64.0374 35.1473 64.0429 34.8429 64.0429C21.1225 64.0429 10 52.9204 10 39.2Z" fill="white"/>
<path d="M56.9079 27.7738L56.0202 28.2344L56.4625 29.0867L57.3321 28.6793L56.9079 27.7738ZM77.2415 59.559L76.5964 58.795L76.5466 58.837L76.5028 58.885L77.2415 59.559ZM35.7522 64.0266L35.8006 63.0277L35.7584 63.0257L35.7162 63.0272L35.7522 64.0266ZM34.8429 13.3572C20.5702 13.3572 9 24.9274 9 39.2H11C11 26.032 21.6748 15.3572 34.8429 15.3572V13.3572ZM57.7955 27.3132C53.4942 19.0239 44.8311 13.3572 34.8429 13.3572V15.3572C44.0554 15.3572 52.0493 20.5818 56.0202 28.2344L57.7955 27.3132ZM57.3321 28.6793C59.6504 27.5931 62.2386 26.9858 64.9714 26.9858V24.9858C61.9393 24.9858 59.062 25.6602 56.4836 26.8682L57.3321 28.6793ZM64.9714 26.9858C74.9283 26.9858 83 35.0574 83 45.0143H85C85 33.9529 76.0329 24.9858 64.9714 24.9858V26.9858ZM83 45.0143C83 50.5411 80.5143 55.4863 76.5964 58.795L77.8867 60.323C82.2355 56.6506 85 51.1548 85 45.0143H83ZM67.0857 65.0429C71.4017 65.0429 75.2856 63.1871 77.9803 60.2329L76.5028 58.885C74.171 61.4413 70.8161 63.0429 67.0857 63.0429V65.0429ZM64.9836 65.0429H67.0857V63.0429H64.9836V65.0429ZM64.9836 63.0429C64.9813 63.0429 64.979 63.0429 64.977 63.0429C64.975 63.0429 64.9732 63.0429 64.9714 63.0429V65.0429C64.9737 65.0429 64.976 65.0429 64.978 65.0429C64.9801 65.0429 64.9819 65.0429 64.9836 65.0429V63.0429ZM64.9714 63.0429C64.9697 63.0429 64.9679 63.0429 64.9658 63.0429C64.9638 63.0429 64.9616 63.0429 64.9592 63.0429V65.0429C64.961 65.0429 64.9628 65.0429 64.9649 65.0429C64.9669 65.0429 64.9691 65.0429 64.9714 65.0429V63.0429ZM36.4286 65.0429H64.9592V63.0429H36.4286V65.0429ZM35.7038 65.0254C35.944 65.037 36.1856 65.0429 36.4286 65.0429V63.0429C36.2179 63.0429 36.0086 63.0378 35.8006 63.0277L35.7038 65.0254ZM34.8429 65.0429C35.1593 65.0429 35.4744 65.0372 35.7881 65.0259L35.7162 63.0272C35.4264 63.0376 35.1353 63.0429 34.8429 63.0429V65.0429ZM9 39.2C9 53.4726 20.5702 65.0429 34.8429 65.0429V63.0429C21.6748 63.0429 11 52.3681 11 39.2H9Z" fill="white" mask="url(#path-2-inside-1_62_833)"/>
</g>
<defs>
<filter id="filter0_d_62_833" x="0" y="0.957153" width="94" height="77.0858" filterUnits="userSpaceOnUse" color-interpolation-filters="sRGB">
<feFlood flood-opacity="0" result="BackgroundImageFix"/>
<feColorMatrix in="SourceAlpha" type="matrix" values="0 0 0 0 0 0 0 0 0 0 0 0 0 0 0 0 0 0 127 0" result="hardAlpha"/>
<feOffset dy="4"/>
<feGaussianBlur stdDeviation="5"/>
<feComposite in2="hardAlpha" operator="out"/>
<feColorMatrix type="matrix" values="0 0 0 0 0 0 0 0 0 0 0 0 0 0 0 0 0 0 0.05 0"/>
<feBlend mode="normal" in2="BackgroundImageFix" result="effect1_dropShadow_62_833"/>
<feBlend mode="normal" in="SourceGraphic" in2="effect1_dropShadow_62_833" result="shape"/>
</filter>
<linearGradient id="paint0_linear_62_833" x1="51.2286" y1="10.1286" x2="74.4857" y2="30.2143" gradientUnits="userSpaceOnUse">
<stop stop-color="#FFFCBF"/>
<stop offset="1" stop-color="#FFF505"/>
</linearGradient>
</defs>
</svg>
